<?xml version="1.0" encoding="UTF-8"?>
<svg id="b" data-name="Layer 2" xmlns="http://www.w3.org/2000/svg" viewBox="0 0 906.04 350.18">
  <defs>
    <style>
      .d {
        fill: #89478a;
      }

      .e {
        fill: #864d7d;
      }

      .f {
        fill: #672e8d;
      }

      .g {
        fill: #dfd562;
      }

      .h {
        fill: #682d8d;
      }

      .i {
        fill: #c495c9;
      }

      .j {
        fill: #b2a05f;
      }

      .k {
        fill: #9e816b;
      }

      .l {
        fill: #8c4a8d;
      }

      .m {
        fill: #fcf3f5;
      }

      .n {
        fill: #773d7c;
      }

      .o {
        fill: #804284;
      }

      .p {
        fill: #995197;
      }

      .q {
        fill: #754968;
      }

      .r {
        fill: #68366f;
      }

      .s {
        fill: #6c3f67;
      }
    </style>
  </defs>
  <g id="c" data-name="Layer 1">
    <g>
      <g>
        <polygon class="m" points="263.28 285.71 263.28 199.87 188.94 156.95 114.6 199.87 114.6 285.71 188.94 328.62 263.28 285.71"/>
        <g>
          <path class="p" d="M151.55,175.04l.07,3.44v29.71s0,67.4,0,67.4v74.59c-.61-.25-1.15-.48-1.63-.76l-7.3-4.22-4.26-2.46-6.69-3.86-3.96-2.28-5.75-3.36-5.92-3.45-6.53-3.77-4.72-2.72-5.93-3.42-6.38-3.69-4.72-2.72-6.08-3.51-4.41-2.55-6.54-3.77-6.08-3.51-4.72-2.72-5.93-3.42-6.38-3.69-4.72-2.72-5.93-3.42-6.38-3.69-4.72-2.72-6.08-3.51-4.41-2.55-6.69-3.86-5.47-3.16-2.52-1.38c-.33-.18-.81-.87-.8-1.28l.04-2.3V91.46s.04-3.44.04-3.44c.54.23,1.21.51,1.76.84l2.73,1.63c1.18.71,2.38,1.33,3.6,1.96l2.46,1.29,2.47,1.36,4.76,2.73,6.09,3.5,6.39,3.68,4.41,2.55,6.23,3.6,6.24,3.6,6.09,3.51,6.54,3.77,4.26,2.46,6.53,3.77,4.56,2.63,3.62,2.11,4.49,2.73,3.09,1.78,2.36,1.42,1.69.95,1.98,1.14,4.34,2.55,4.49,2.54,2.1,1.21,2.68,1.6,5.35,2.95,2.72,1.52,5.19,2.98,2.72,1.57,3,1.73,5.46,3.15,5.59,3.22,3.76,2.16,4.04,2.33,4.69,2.7,3.01,1.77ZM14.2,206.78l2.1,1.25,46.79,27.02c.14.08.44.18.51.2-.04.08.24-.27.24-.33v-2.79s.01-51.51.01-51.51c0-.89.05-2.05-.24-2.65-.15-.32-.8-.74-1.17-.95l-4.87-2.84-2.61-1.5-6.84-3.94-3.5-2.02-3.94-2.28-3.51-2.02-8.2-4.73-3.04-1.77-3.94-2.29-3.66-2.12-3.8-2.2c-.13-.08-.58-.04-.58.1v2.21s.01,51.47.01,51.47c0,1.36-.08,2.34-.24,3.69h.47ZM81.35,245.4l2.1,1.25,46.79,27.02c.14.08.44.18.51.2-.04.08.24-.27.24-.33v-2.79s.01-51.51.01-51.51c0-.89.02-2.04-.24-2.65-.14-.33-.81-.74-1.17-.95l-4.87-2.84-2.61-1.5-6.84-3.94-3.5-2.02-3.94-2.28-3.51-2.02-8.2-4.73-3.04-1.77-3.94-2.29-3.53-2.04-4.08-2.36c-.14-.08-.46.23-.46.38l.03,2.01v51.47c0,1.36-.07,2.34-.23,3.69h.47Z"/>
          <path class="g" d="M207.75,272.95v44.04c0,.37.19.67.21.57v.21s-3.46,2.06-3.46,2.06l-10.94,6.29-5.31,3.07-6.55,3.79-9.88,5.72-6.99,4.04-4.11,2.37-7.16,4.13c-.47.27-1.25.67-1.65.87l-.04-3.33v-71.19s0-67.4,0-67.4v-29.48s.03-3.59.03-3.59c.83-.36,1.68-.79,2.54-1.29l4.71-2.73,6.23-3.6,4.41-2.55,6.54-3.77,6.08-3.51,4.41-2.55,6.54-3.77,6.24-3.6,6.08-3.51,4.41-2.55,6.54-3.77,6.24-3.6,6.08-3.51,4.41-2.55,6.54-3.77,6.23-3.6,6.42-3.7,36.6-21.12,12.18-7.01,1.88-1.03v171.9s.06,2.31.06,2.31c-.12.33-.49.91-.8,1.08l-2.64,1.46-4.71,2.72-6.53,3.78-4.26,2.46-6.54,3.77-6.08,3.51-4.26,2.46-7.14,4.13c-.92.53-1.8.99-2.66,1.42-.01-.14-.03-.38-.03-.51l.03-24.19v-42.49s-.01-46.71-.01-46.71c0-.18-.05-.55-.13-.52s-.35.1-.47.16l-47.25,27.28c-.58.34-1.62.83-1.81,1.33-.25.69-.22,1.96-.22,2.89v18.96s0,2.99,0,2.99c0,.06.2.44.17.37l-.12,3.12v.24s0,3.85,0,3.85l-.04,18.2"/>
          <path class="p" d="M303.2,88.02l-1.88,1.03-12.18,7.01-36.6,21.12-6.42,3.7-6.23,3.6-6.54,3.77-4.41,2.55-6.08,3.51-6.24,3.6-6.54,3.77-4.41,2.55-6.08,3.51-6.24,3.6-6.54,3.77-4.41,2.55-6.08,3.51-6.54,3.77-4.41,2.55-6.23,3.6-4.71,2.73c-.86.5-1.71.92-2.54,1.29l-.03-5.79v-1.38c0-.06-.19-.35-.18-.3l.03-4.1-.04-26.39v-67.11s.03-26.63.03-26.63l-.03-3.86c-.03.1.18-.31.18-.4v-4.88s0-28.06,0-28.06V0l4.59,2.61,6.68,3.86,4.26,2.46,6.53,3.78,4.26,2.46,6.54,3.77,6.08,3.51,4.41,2.55,6.54,3.77,6.08,3.51,4.41,2.55,6.54,3.77,6.08,3.51,4.41,2.55,6.53,3.78,4.26,2.46,6.54,3.77,6.08,3.51,4.41,2.55,6.54,3.77,6.08,3.51,4.41,2.55,6.53,3.78,4.26,2.46,6.54,3.77,6.23,3.6,3.95,2.29c.59.34,1.26.6,1.91.89l-.34.67Z"/>
          <path class="f" d="M151.62,6.24v28.06l.06,5.28.03,3.86-.04,26.63v67.11s.04,26.39.04,26.39l-.03,4.1-.06,1.68-.07,5.7-3.01-1.77-4.69-2.7-4.04-2.33-3.76-2.16-5.59-3.22-5.46-3.15-3-1.73-2.72-1.57-5.19-2.98-2.72-1.52-5.35-2.95-2.68-1.6-2.1-1.21-4.49-2.54-4.34-2.55-1.98-1.14-1.69-.95-2.36-1.42-3.09-1.78-4.49-2.73-3.62-2.11-4.56-2.63-6.53-3.77-4.26-2.46-6.54-3.77-6.09-3.51-6.24-3.6-6.23-3.6-4.41-2.55-6.39-3.68-6.09-3.5-4.76-2.73-2.47-1.36-2.46-1.29c-1.22-.64-2.41-1.26-3.6-1.96l-2.73-1.63c-.55-.33-1.22-.61-1.76-.84.15-.45.45-.9.72-1.05l2.54-1.4,6.38-3.68,4.41-2.55,6.53-3.78,4.26-2.46,6.54-3.77,6.08-3.51,4.41-2.55,6.54-3.77,6.08-3.51,4.41-2.55,6.54-3.77,6.08-3.51,4.41-2.55,6.53-3.78,4.26-2.46,6.54-3.77,6.08-3.51,4.41-2.55,6.54-3.77,6.08-3.51,4.41-2.55,6.54-3.77,6.08-3.51,4.41-2.55,6.38-3.69,4.41-2.55,2.94-1.62v6.24Z"/>
          <path class="s" d="M151.9,350.1s-.27.07-.28.08v-74.59h.24v71.19s.04,3.33.04,3.33Z"/>
          <rect class="r" x="151.62" width=".24" height="6.24"/>
          <path class="i" d="M63.6,177.97v.24c-.89.44-1.69.87-2.69,1.45l-44.81,26.07-1.91,1.05h-.47c.16-1.34.24-2.32.24-3.68v-51.47s-.01-2.21-.01-2.21c0-.14.45-.18.58-.1l3.8,2.2,3.66,2.12,3.94,2.29,3.04,1.77,8.2,4.73,3.51,2.02,3.94,2.28,3.5,2.02,6.84,3.94,2.61,1.5,4.87,2.84c.36.21,1.01.63,1.17.95Z"/>
          <path class="i" d="M130.76,216.58v.24c-.89.44-1.69.87-2.69,1.45l-44.81,26.07-1.91,1.05h-.47c.16-1.34.24-2.32.24-3.68v-51.47s-.04-2.01-.04-2.01c0-.15.32-.46.46-.38l4.08,2.36,3.53,2.04,3.94,2.29,3.04,1.77,8.2,4.73,3.51,2.02,3.94,2.28,3.5,2.02,6.84,3.94,2.61,1.5,4.87,2.84c.36.21,1.03.62,1.17.95Z"/>
          <path class="h" d="M63.6,178.21v55.6s-.01,1.45-.01,1.45c-.07-.02-.36-.12-.51-.2l-46.79-27.02-2.1-1.25,1.91-1.05,44.81-26.07c1-.58,1.8-1.01,2.69-1.45Z"/>
          <path class="h" d="M130.76,216.82v55.6s-.01,1.45-.01,1.45c-.07-.02-.36-.12-.51-.2l-46.79-27.02-2.1-1.25,1.91-1.05,44.81-26.07c1-.58,1.8-1.01,2.69-1.45Z"/>
          <rect class="q" x="151.62" y="208.19" width=".24" height="67.4"/>
          <path class="o" d="M63.59,235.26v-1.45s.01-55.6.01-55.6v-.24c.29.61.24,1.77.24,2.65v51.51s-.01,2.79-.01,2.79c0,.06-.28.41-.24.33Z"/>
          <path class="o" d="M130.75,273.87v-1.45s.01-55.6.01-55.6v-.24c.26.62.24,1.76.24,2.65v51.51s-.01,2.79-.01,2.79c0,.06-.28.41-.24.33Z"/>
          <polygon class="e" points="151.89 175.12 151.86 178.71 151.86 208.19 151.62 208.19 151.62 178.48 151.55 175.04 151.62 169.33 151.86 169.33 151.89 175.12"/>
          <path class="h" d="M207.75,260.72h0v-6.73s.05-18.2.05-18.2v-3.85c.06-.1.06-.15,0-.24l.12-3.12.07-3.36-.03-21.85c.18-.5,1.23-1,1.81-1.33l47.25-27.28c.12-.07.38-.14.47-.16s.13.35.13.52v46.71s.01,42.49.01,42.49l-.03,24.19c-.48-.16-1.13-.4-1.61-.68l-2.89-1.72-4.1-2.38-6.84-3.94-3.5-2.02-3.93-2.28-3.51-2.02-8.2-4.73-3.04-1.77-3.79-2.2-4.1-2.37-4.32-2.53"/>
          <path class="j" d="M207.99,225.22h-.24v-18.96c0-.92-.04-2.2.21-2.89l.03,21.85Z"/>
          <path class="k" d="M207.92,228.58c.02.08-.17-.31-.17-.37v-2.99h.24l-.07,3.36Z"/>
          <path class="k" d="M207.8,231.94v-.24c.05.09.05.14,0,.24Z"/>
          <rect class="n" x="151.62" y="6.24" width=".24" height="28.06"/>
          <path class="d" d="M151.68,39.58l-.06-5.28h.24v4.88c0,.09-.21.49-.18.4Z"/>
          <path class="l" d="M151.86,169.33h-.24l.06-1.68s.17.24.17.3v1.38Z"/>
        </g>
      </g>
      <g>
        <path d="M431.08,95.78c.76,0,1.44.28,2.06.85.61.57.92,1.23.92,1.99,0,.66-.05,1.09-.14,1.28l-28.68,90.6c-.28,1.04-.9,2.04-1.85,2.98-.85.76-2.18,1.14-3.98,1.14h-22.72c-1.8,0-3.12-.38-3.98-1.14-.95-.85-1.61-1.85-1.99-2.98l-28.54-90.6-.28-1.28c0-.76.28-1.42.85-1.99.66-.57,1.42-.85,2.27-.85h18.46c1.51,0,2.7.38,3.55,1.14.85.85,1.42,1.7,1.7,2.56l18.6,61.63c0,.38.23.57.71.57.38,0,.57-.19.57-.57l18.74-61.63c.38-1.23,1.04-2.15,1.99-2.77.95-.61,2.03-.92,3.27-.92h18.46Z"/>
        <path d="M439.46,191.34v-83.07c0-3.6,1.23-6.55,3.69-8.88,2.46-2.32,5.35-3.48,8.66-3.48h57.94c.95,0,1.8.38,2.56,1.14.76.76,1.14,1.61,1.14,2.56v14.06c0,1.04-.38,1.85-1.14,2.41-.66.66-1.52.99-2.56.99h-52.54c2.27,0,4.14.81,5.61,2.41,1.47,1.61,2.2,3.36,2.2,5.25v5.96c0,1.04.38,2.04,1.14,2.98.76.95,1.85,1.42,3.27,1.42h30.81c2.46,0,3.69,1.23,3.69,3.69v12.78c0,2.46-1.23,3.69-3.69,3.69h-43.03c2.18,0,4.02.76,5.54,2.27,1.51,1.52,2.27,3.22,2.27,5.11v6.67c0,1.04.4,2.04,1.21,2.98.8.95,1.87,1.42,3.19,1.42h41.46c1.04,0,1.92.35,2.63,1.06s1.06,1.59,1.06,2.63v13.92c0,1.04-.38,1.9-1.14,2.56-.76.66-1.61.99-2.56.99h-67.88c-1.04,0-1.9-.33-2.56-.99-.66-.66-.99-1.51-.99-2.56Z"/>
        <path d="M614.12,194.04c-.57.57-1.28.85-2.13.85h-19.88c-2.75,0-4.69-1.28-5.82-3.83l-14.34-28.4c-.85-1.51-2.13-2.27-3.83-2.27h-18.74c2.46,0,4.38.85,5.75,2.56,1.37,1.7,2.06,3.36,2.06,4.97v23.43c0,1.14-.33,2.01-.99,2.63-.66.62-1.56.92-2.7.92h-19.31c-1.04,0-1.9-.33-2.56-.99-.66-.66-.99-1.51-.99-2.56v-83.07c0-3.5,1.23-6.44,3.69-8.8,2.46-2.37,5.35-3.55,8.66-3.55h30.1c5.3,0,10.34.59,15.12,1.77,4.78,1.18,8.97,3.05,12.57,5.61,3.6,2.56,6.48,5.89,8.66,10.01,2.18,4.12,3.27,9.11,3.27,14.98s-1.21,11.03-3.62,15.48c-2.41,4.45-6.23,8.09-11.43,10.93-.76.57-1.14,1.19-1.14,1.85s.09,1.19.28,1.56l17.75,32.23c.28.57.43,1.09.43,1.56,0,.66-.28,1.37-.85,2.13ZM585.29,128.15c0-3.88-1.11-6.84-3.34-8.88-2.23-2.03-5.23-3.05-9.02-3.05h-24.42c2.27,0,4.12.83,5.54,2.49,1.42,1.66,2.13,3.39,2.13,5.18v11.36c0,1.23.43,2.27,1.28,3.12s1.89,1.28,3.12,1.28h12.35c3.79,0,6.79-.95,9.02-2.84,2.22-1.89,3.34-4.78,3.34-8.66Z"/>
        <path d="M625.62,158.26c-.1-1.32-.14-3-.14-5.04v-14.98c0-2.08.05-3.79.14-5.11.19-6.53,1.44-12.21,3.76-17.04,2.32-4.83,5.42-8.8,9.3-11.93,3.88-3.12,8.47-5.47,13.77-7.03,5.3-1.56,11.03-2.34,17.18-2.34,5.4,0,10.72.66,15.97,1.99,5.25,1.33,9.96,3.41,14.13,6.25,4.17,2.84,7.55,6.41,10.15,10.72,2.6,4.31,3.95,9.44,4.05,15.41,0,.85-.28,1.56-.85,2.13-.66.57-1.42.85-2.27.85h-20.02c-1.42,0-2.44-.28-3.05-.85-.62-.57-1.11-1.51-1.49-2.84-1.23-4.45-3.15-7.62-5.75-9.51-2.6-1.89-6.23-2.84-10.86-2.84-10.7,0-16.24,5.92-16.61,17.75-.1,1.33-.14,2.94-.14,4.83v13.92c0,1.99.05,3.65.14,4.97.47,11.93,6.01,17.89,16.61,17.89,4.16,0,7.71-.95,10.65-2.84,2.75-1.99,4.73-5.21,5.96-9.66.47-1.51.99-2.46,1.56-2.84.76-.57,1.75-.85,2.98-.85h20.02c.85,0,1.61.28,2.27.85.57.57.85,1.28.85,2.13-.1,6.06-1.47,11.27-4.12,15.62-2.65,4.36-6.08,7.93-10.29,10.72-4.21,2.79-8.92,4.83-14.13,6.11-5.21,1.28-10.46,1.92-15.76,1.92-6.34,0-12.14-.76-17.4-2.27s-9.82-3.83-13.7-6.96c-3.88-3.12-6.96-7.1-9.23-11.93-2.27-4.83-3.5-10.55-3.69-17.18Z"/>
        <path d="M769.61,196.6c-13.44,0-24.05-3.27-31.81-9.8-7.76-6.53-11.88-16.14-12.35-28.83-.1-2.65-.14-6.72-.14-12.21s.05-9.61.14-12.35c.38-12.5,4.52-22.13,12.42-28.9,7.9-6.77,18.48-10.15,31.74-10.15s23.69,3.39,31.59,10.15c7.9,6.77,12.05,16.4,12.43,28.9.19,5.49.28,9.61.28,12.35s-.09,6.91-.28,12.21c-.48,12.69-4.57,22.29-12.28,28.83-7.72,6.53-18.3,9.8-31.74,9.8ZM769.61,175.3c4.92,0,8.85-1.49,11.79-4.47,2.93-2.98,4.5-7.55,4.69-13.7.19-5.49.28-9.42.28-11.79s-.09-6.2-.28-11.5c-.19-6.15-1.75-10.72-4.69-13.7-2.94-2.98-6.87-4.47-11.79-4.47s-9,1.49-11.93,4.47c-2.94,2.98-4.5,7.55-4.69,13.7-.09,2.65-.14,6.49-.14,11.5s.05,9.04.14,11.79c.19,6.15,1.75,10.72,4.69,13.7,2.93,2.98,6.91,4.47,11.93,4.47Z"/>
        <path d="M830.24,191.34v-83.07c0-3.6,1.23-6.55,3.69-8.88,2.46-2.32,5.35-3.48,8.66-3.48h57.94c.95,0,1.8.38,2.56,1.14.76.76,1.14,1.61,1.14,2.56v14.06c0,1.04-.38,1.85-1.14,2.41-.66.66-1.51.99-2.56.99h-52.54c2.27,0,4.14.81,5.61,2.41,1.47,1.61,2.2,3.36,2.2,5.25v5.96c0,1.04.38,2.04,1.14,2.98.76.95,1.85,1.42,3.27,1.42h30.81c2.46,0,3.69,1.23,3.69,3.69v12.78c0,2.46-1.23,3.69-3.69,3.69h-43.03c2.18,0,4.02.76,5.54,2.27,1.51,1.52,2.27,3.22,2.27,5.11v6.67c0,1.04.4,2.04,1.21,2.98.8.95,1.87,1.42,3.19,1.42h41.46c1.04,0,1.92.35,2.63,1.06s1.07,1.59,1.07,2.63v13.92c0,1.04-.38,1.9-1.14,2.56-.76.66-1.61.99-2.56.99h-67.88c-1.04,0-1.89-.33-2.56-.99-.66-.66-.99-1.51-.99-2.56Z"/>
        <path d="M356.61,239.72h-6.57v14.26h-4.46v-34.15h11.02c8.04,0,11.81,4.41,11.81,10,0,5.19-3.33,9.9-11.81,9.9ZM356.61,236.04c5.1,0,7.25-2.4,7.25-6.22s-2.16-6.32-7.25-6.32h-6.57v12.54h6.57Z"/>
        <path d="M379.74,253.98h-4.46v-26.85h4.46v4.36c1.52-2.99,4.41-4.85,8.67-4.85v4.61h-1.18c-4.26,0-7.5,1.91-7.5,8.13v14.6Z"/>
        <path d="M406.59,254.42c-7.59,0-13.38-5.39-13.38-13.92s5.98-13.82,13.57-13.82,13.57,5.34,13.57,13.82-6.12,13.92-13.77,13.92ZM406.59,250.5c4.65,0,9.21-3.19,9.21-10s-4.46-9.95-9.06-9.95-8.97,3.18-8.97,9.95,4.16,10,8.82,10Z"/>
        <path d="M442.06,226.69c7.2,0,12.74,5.39,12.74,13.77s-5.54,13.96-12.74,13.96c-4.9,0-8.38-2.65-10.04-5.39v17.69h-4.46v-39.59h4.46v4.95c1.62-2.84,5.14-5.39,10.04-5.39ZM441.13,230.56c-4.85,0-9.11,3.72-9.11,9.95s4.26,10,9.11,10,9.11-3.72,9.11-10.04-4.17-9.9-9.11-9.9Z"/>
        <path d="M473.62,254.42c-7.64,0-13.28-5.39-13.28-13.92s5.44-13.82,13.28-13.82,12.89,5.49,12.89,12.84c0,.98-.05,1.76-.15,2.69h-21.46c.34,5.44,4.16,8.43,8.72,8.43,4.02,0,6.57-2.06,7.55-4.95h4.8c-1.37,4.9-5.68,8.72-12.35,8.72ZM464.95,238.59h16.95c.05-5.24-3.87-8.13-8.48-8.13-4.36,0-7.99,2.89-8.48,8.13Z"/>
        <path d="M498.17,253.98h-4.46v-26.85h4.46v4.36c1.52-2.99,4.41-4.85,8.67-4.85v4.61h-1.18c-4.26,0-7.5,1.91-7.5,8.13v14.6Z"/>
        <path d="M514.29,230.8h-3.48v-3.67h3.48v-6.76h4.46v6.76h7.01v3.67h-7.01v15.83c0,2.65.98,3.58,3.72,3.58h3.28v3.77h-4.02c-4.75,0-7.45-1.96-7.45-7.35v-15.83Z"/>
        <path d="M550.99,227.13h4.61l-16.17,39.49h-4.61l5.29-12.94-10.83-26.56h4.95l8.43,21.75,8.33-21.75Z"/>
        <path d="M575.78,220.07h4.8l12.54,28.03,12.54-28.03h4.75v33.91h-4.46v-25.28l-11.27,25.28h-3.14l-11.32-25.33v25.33h-4.46v-33.91Z"/>
        <path d="M630.37,226.69c5,0,8.43,2.55,10,5.34v-4.9h4.51v26.85h-4.51v-5c-1.62,2.89-5.1,5.44-10.04,5.44-7.15,0-12.69-5.63-12.69-13.96s5.54-13.77,12.74-13.77ZM631.25,230.56c-4.9,0-9.06,3.58-9.06,9.9s4.17,10.04,9.06,10.04,9.11-3.67,9.11-10-4.21-9.95-9.11-9.95Z"/>
        <path d="M653.01,219.73c0-1.71,1.32-3.04,3.04-3.04,1.62,0,2.94,1.32,2.94,3.04s-1.32,3.04-2.94,3.04c-1.71,0-3.04-1.32-3.04-3.04ZM653.74,227.13h4.46v26.85h-4.46v-26.85Z"/>
        <path d="M686.77,238.79c0-5.49-2.99-8.28-7.5-8.28s-7.69,2.84-7.69,8.62v14.85h-4.46v-26.85h4.46v3.82c1.76-2.79,5-4.31,8.62-4.31,6.22,0,10.98,3.82,10.98,11.51v15.83h-4.41v-15.19Z"/>
        <path d="M700.78,230.8h-3.48v-3.67h3.48v-6.76h4.46v6.76h7.01v3.67h-7.01v15.83c0,2.65.98,3.58,3.72,3.58h3.28v3.77h-4.02c-4.75,0-7.45-1.96-7.45-7.35v-15.83Z"/>
        <path d="M730.57,254.42c-7.64,0-13.28-5.39-13.28-13.92s5.44-13.82,13.28-13.82,12.89,5.49,12.89,12.84c0,.98-.05,1.76-.15,2.69h-21.46c.34,5.44,4.17,8.43,8.72,8.43,4.02,0,6.57-2.06,7.54-4.95h4.8c-1.37,4.9-5.68,8.72-12.35,8.72ZM721.9,238.59h16.95c.05-5.24-3.87-8.13-8.48-8.13-4.36,0-7.99,2.89-8.48,8.13Z"/>
        <path d="M770.31,238.79c0-5.49-2.99-8.28-7.5-8.28s-7.69,2.84-7.69,8.62v14.85h-4.46v-26.85h4.46v3.82c1.76-2.79,5-4.31,8.62-4.31,6.22,0,10.98,3.82,10.98,11.51v15.83h-4.41v-15.19Z"/>
        <path d="M794.42,226.69c5,0,8.43,2.55,10,5.34v-4.9h4.51v26.85h-4.51v-5c-1.62,2.89-5.1,5.44-10.04,5.44-7.15,0-12.69-5.63-12.69-13.96s5.54-13.77,12.74-13.77ZM795.3,230.56c-4.9,0-9.06,3.58-9.06,9.9s4.17,10.04,9.06,10.04,9.11-3.67,9.11-10-4.21-9.95-9.11-9.95Z"/>
        <path d="M837.44,238.79c0-5.49-2.99-8.28-7.5-8.28s-7.69,2.84-7.69,8.62v14.85h-4.46v-26.85h4.46v3.82c1.76-2.79,5-4.31,8.62-4.31,6.22,0,10.98,3.82,10.98,11.51v15.83h-4.41v-15.19Z"/>
        <path d="M861.89,226.69c6.66,0,11.02,3.43,12.4,9.06h-4.8c-.93-3.23-3.63-5.29-7.59-5.29-4.9,0-8.53,3.48-8.53,10.04s3.63,10.14,8.53,10.14c3.97,0,6.61-1.91,7.59-5.29h4.8c-1.37,5.34-5.73,9.06-12.4,9.06-7.64,0-13.08-5.39-13.08-13.92s5.44-13.82,13.08-13.82Z"/>
        <path d="M893.16,254.42c-7.64,0-13.28-5.39-13.28-13.92s5.44-13.82,13.28-13.82,12.89,5.49,12.89,12.84c0,.98-.05,1.76-.15,2.69h-21.46c.34,5.44,4.17,8.43,8.72,8.43,4.02,0,6.57-2.06,7.54-4.95h4.8c-1.37,4.9-5.68,8.72-12.35,8.72ZM884.48,238.59h16.95c.05-5.24-3.87-8.13-8.48-8.13-4.36,0-7.99,2.89-8.48,8.13Z"/>
      </g>
    </g>
  </g>
</svg>