<?xml version="1.0" encoding="UTF-8"?>
<svg id="b" data-name="Layer 2" xmlns="http://www.w3.org/2000/svg" viewBox="0 0 303.55 350.18">
  <defs>
    <style>
      .d {
        fill: #89478a;
      }

      .e {
        fill: #864d7d;
      }

      .f {
        fill: #672e8d;
      }

      .g {
        fill: #dfd562;
      }

      .h {
        fill: #682d8d;
      }

      .i {
        fill: #c495c9;
      }

      .j {
        fill: #b2a05f;
      }

      .k {
        fill: #9e816b;
      }

      .l {
        fill: #8c4a8d;
      }

      .m {
        fill: #fcf3f5;
      }

      .n {
        fill: #773d7c;
      }

      .o {
        fill: #804284;
      }

      .p {
        fill: #995197;
      }

      .q {
        fill: #754968;
      }

      .r {
        fill: #68366f;
      }

      .s {
        fill: #6c3f67;
      }
    </style>
  </defs>
  <g id="c" data-name="Layer 1">
    <g>
      <polygon class="m" points="263.28 285.71 263.28 199.87 188.94 156.95 114.6 199.87 114.6 285.71 188.94 328.62 263.28 285.71"/>
      <g>
        <path class="p" d="M151.55,175.04l.07,3.44v29.71s0,67.4,0,67.4v74.59c-.61-.25-1.15-.48-1.63-.76l-7.3-4.22-4.26-2.46-6.69-3.86-3.96-2.28-5.75-3.36-5.92-3.45-6.53-3.77-4.72-2.72-5.93-3.42-6.38-3.69-4.72-2.72-6.08-3.51-4.41-2.55-6.54-3.77-6.08-3.51-4.72-2.72-5.93-3.42-6.38-3.69-4.72-2.72-5.93-3.42-6.38-3.69-4.72-2.72-6.08-3.51-4.41-2.55-6.69-3.86-5.47-3.16-2.52-1.38c-.33-.18-.81-.87-.8-1.28l.04-2.3V91.46s.04-3.44.04-3.44c.54.23,1.21.51,1.76.84l2.73,1.63c1.18.71,2.38,1.33,3.6,1.96l2.46,1.29,2.47,1.36,4.76,2.73,6.09,3.5,6.39,3.68,4.41,2.55,6.23,3.6,6.24,3.6,6.09,3.51,6.54,3.77,4.26,2.46,6.53,3.77,4.56,2.63,3.62,2.11,4.49,2.73,3.09,1.78,2.36,1.42,1.69.95,1.98,1.14,4.34,2.55,4.49,2.54,2.1,1.21,2.68,1.6,5.35,2.95,2.72,1.52,5.19,2.98,2.72,1.57,3,1.73,5.46,3.15,5.59,3.22,3.76,2.16,4.04,2.33,4.69,2.7,3.01,1.77ZM14.2,206.78l2.1,1.25,46.79,27.02c.14.08.44.18.51.2-.04.08.24-.27.24-.33v-2.79s.01-51.51.01-51.51c0-.89.05-2.05-.24-2.65-.15-.32-.8-.74-1.17-.95l-4.87-2.84-2.61-1.5-6.84-3.94-3.5-2.02-3.94-2.28-3.51-2.02-8.2-4.73-3.04-1.77-3.94-2.29-3.66-2.12-3.8-2.2c-.13-.08-.58-.04-.58.1v2.21s.01,51.47.01,51.47c0,1.36-.08,2.34-.24,3.69h.47ZM81.35,245.4l2.1,1.25,46.79,27.02c.14.08.44.18.51.2-.04.08.24-.27.24-.33v-2.79s.01-51.51.01-51.51c0-.89.02-2.04-.24-2.65-.14-.33-.81-.74-1.17-.95l-4.87-2.84-2.61-1.5-6.84-3.94-3.5-2.02-3.94-2.28-3.51-2.02-8.2-4.73-3.04-1.77-3.94-2.29-3.53-2.04-4.08-2.36c-.14-.08-.46.23-.46.38l.03,2.01v51.47c0,1.36-.07,2.34-.23,3.69h.47Z"/>
        <path class="g" d="M207.75,272.95v44.04c0,.37.19.67.21.57v.21s-3.46,2.06-3.46,2.06l-10.94,6.29-5.31,3.07-6.55,3.79-9.88,5.72-6.99,4.04-4.11,2.37-7.16,4.13c-.47.27-1.25.67-1.65.87l-.04-3.33v-71.19s0-67.4,0-67.4v-29.48s.03-3.59.03-3.59c.83-.36,1.68-.79,2.54-1.29l4.71-2.73,6.23-3.6,4.41-2.55,6.54-3.77,6.08-3.51,4.41-2.55,6.54-3.77,6.24-3.6,6.08-3.51,4.41-2.55,6.54-3.77,6.24-3.6,6.08-3.51,4.41-2.55,6.54-3.77,6.23-3.6,6.42-3.7,36.6-21.12,12.18-7.01,1.88-1.03v171.9s.06,2.31.06,2.31c-.12.33-.49.91-.8,1.08l-2.64,1.46-4.71,2.72-6.53,3.78-4.26,2.46-6.54,3.77-6.08,3.51-4.26,2.46-7.14,4.13c-.92.53-1.8.99-2.66,1.42-.01-.14-.03-.38-.03-.51l.03-24.19v-42.49s-.01-46.71-.01-46.71c0-.18-.05-.55-.13-.52s-.35.1-.47.16l-47.25,27.28c-.58.34-1.62.83-1.81,1.33-.25.69-.22,1.96-.22,2.89v18.96s0,2.99,0,2.99c0,.06.2.44.17.37l-.12,3.12v.24s0,3.85,0,3.85l-.04,18.2"/>
        <path class="p" d="M303.2,88.02l-1.88,1.03-12.18,7.01-36.6,21.12-6.42,3.7-6.23,3.6-6.54,3.77-4.41,2.55-6.08,3.51-6.24,3.6-6.54,3.77-4.41,2.55-6.08,3.51-6.24,3.6-6.54,3.77-4.41,2.55-6.08,3.51-6.54,3.77-4.41,2.55-6.23,3.6-4.71,2.73c-.86.5-1.71.92-2.54,1.29l-.03-5.79v-1.38c0-.06-.19-.35-.18-.3l.03-4.1-.04-26.39v-67.11s.03-26.63.03-26.63l-.03-3.86c-.03.1.18-.31.18-.4v-4.88s0-28.06,0-28.06V0l4.59,2.61,6.68,3.86,4.26,2.46,6.53,3.78,4.26,2.46,6.54,3.77,6.08,3.51,4.41,2.55,6.54,3.77,6.08,3.51,4.41,2.55,6.54,3.77,6.08,3.51,4.41,2.55,6.53,3.78,4.26,2.46,6.54,3.77,6.08,3.51,4.41,2.55,6.54,3.77,6.08,3.51,4.41,2.55,6.53,3.78,4.26,2.46,6.54,3.77,6.23,3.6,3.95,2.29c.59.34,1.26.6,1.91.89l-.34.67Z"/>
        <path class="f" d="M151.62,6.24v28.06l.06,5.28.03,3.86-.04,26.63v67.11s.04,26.39.04,26.39l-.03,4.1-.06,1.68-.07,5.7-3.01-1.77-4.69-2.7-4.04-2.33-3.76-2.16-5.59-3.22-5.46-3.15-3-1.73-2.72-1.57-5.19-2.98-2.72-1.52-5.35-2.95-2.68-1.6-2.1-1.21-4.49-2.54-4.34-2.55-1.98-1.14-1.69-.95-2.36-1.42-3.09-1.78-4.49-2.73-3.62-2.11-4.56-2.63-6.53-3.77-4.26-2.46-6.54-3.77-6.09-3.51-6.24-3.6-6.23-3.6-4.41-2.55-6.39-3.68-6.09-3.5-4.76-2.73-2.47-1.36-2.46-1.29c-1.22-.64-2.41-1.26-3.6-1.96l-2.73-1.63c-.55-.33-1.22-.61-1.76-.84.15-.45.45-.9.72-1.05l2.54-1.4,6.38-3.68,4.41-2.55,6.53-3.78,4.26-2.46,6.54-3.77,6.08-3.51,4.41-2.55,6.54-3.77,6.08-3.51,4.41-2.55,6.54-3.77,6.08-3.51,4.41-2.55,6.53-3.78,4.26-2.46,6.54-3.77,6.08-3.51,4.41-2.55,6.54-3.77,6.08-3.51,4.41-2.55,6.54-3.77,6.08-3.51,4.41-2.55,6.38-3.69,4.41-2.55,2.94-1.62v6.24Z"/>
        <path class="s" d="M151.9,350.1s-.27.07-.28.08v-74.59h.24v71.19s.04,3.33.04,3.33Z"/>
        <rect class="r" x="151.62" width=".24" height="6.24"/>
        <path class="i" d="M63.6,177.97v.24c-.89.44-1.69.87-2.69,1.45l-44.81,26.07-1.91,1.05h-.47c.16-1.34.24-2.32.24-3.68v-51.47s-.01-2.21-.01-2.21c0-.14.45-.18.58-.1l3.8,2.2,3.66,2.12,3.94,2.29,3.04,1.77,8.2,4.73,3.51,2.02,3.94,2.28,3.5,2.02,6.84,3.94,2.61,1.5,4.87,2.84c.36.21,1.01.63,1.17.95Z"/>
        <path class="i" d="M130.76,216.58v.24c-.89.44-1.69.87-2.69,1.45l-44.81,26.07-1.91,1.05h-.47c.16-1.34.24-2.32.24-3.68v-51.47s-.04-2.01-.04-2.01c0-.15.32-.46.46-.38l4.08,2.36,3.53,2.04,3.94,2.29,3.04,1.77,8.2,4.73,3.51,2.02,3.94,2.28,3.5,2.02,6.84,3.94,2.61,1.5,4.87,2.84c.36.21,1.03.62,1.17.95Z"/>
        <path class="h" d="M63.6,178.21v55.6s-.01,1.45-.01,1.45c-.07-.02-.36-.12-.51-.2l-46.79-27.02-2.1-1.25,1.91-1.05,44.81-26.07c1-.58,1.8-1.01,2.69-1.45Z"/>
        <path class="h" d="M130.76,216.82v55.6s-.01,1.45-.01,1.45c-.07-.02-.36-.12-.51-.2l-46.79-27.02-2.1-1.25,1.91-1.05,44.81-26.07c1-.58,1.8-1.01,2.69-1.45Z"/>
        <rect class="q" x="151.62" y="208.19" width=".24" height="67.4"/>
        <path class="o" d="M63.59,235.26v-1.45s.01-55.6.01-55.6v-.24c.29.61.24,1.77.24,2.65v51.51s-.01,2.79-.01,2.79c0,.06-.28.41-.24.33Z"/>
        <path class="o" d="M130.75,273.87v-1.45s.01-55.6.01-55.6v-.24c.26.62.24,1.76.24,2.65v51.51s-.01,2.79-.01,2.79c0,.06-.28.41-.24.33Z"/>
        <polygon class="e" points="151.89 175.12 151.86 178.71 151.86 208.19 151.62 208.19 151.62 178.48 151.55 175.04 151.62 169.33 151.86 169.33 151.89 175.12"/>
        <path class="h" d="M207.75,260.72h0v-6.73s.05-18.2.05-18.2v-3.85c.06-.1.06-.15,0-.24l.12-3.12.07-3.36-.03-21.85c.18-.5,1.23-1,1.81-1.33l47.25-27.28c.12-.07.38-.14.47-.16s.13.35.13.52v46.71s.01,42.49.01,42.49l-.03,24.19c-.48-.16-1.13-.4-1.61-.68l-2.89-1.72-4.1-2.38-6.84-3.94-3.5-2.02-3.93-2.28-3.51-2.02-8.2-4.73-3.04-1.77-3.79-2.2-4.1-2.37-4.32-2.53"/>
        <path class="j" d="M207.99,225.22h-.24v-18.96c0-.92-.04-2.2.21-2.89l.03,21.85Z"/>
        <path class="k" d="M207.92,228.58c.02.08-.17-.31-.17-.37v-2.99h.24l-.07,3.36Z"/>
        <path class="k" d="M207.8,231.94v-.24c.05.09.05.14,0,.24Z"/>
        <rect class="n" x="151.62" y="6.24" width=".24" height="28.06"/>
        <path class="d" d="M151.68,39.58l-.06-5.28h.24v4.88c0,.09-.21.49-.18.4Z"/>
        <path class="l" d="M151.86,169.33h-.24l.06-1.68s.17.24.17.3v1.38Z"/>
      </g>
    </g>
  </g>
</svg>